<?xml version="1.0" encoding="utf-8"?>
<!-- Generator: Adobe Illustrator 24.3.0, SVG Export Plug-In . SVG Version: 6.00 Build 0)  -->
<svg version="1.1" id="Calque_1" xmlns="http://www.w3.org/2000/svg" xmlns:xlink="http://www.w3.org/1999/xlink" x="0px" y="0px"
	 viewBox="0 0 1000 1000" style="enable-background:new 0 0 1000 1000;" xml:space="preserve">
<style type="text/css">
	.st0{clip-path:url(#SVGID_2_);}
	.st1{fill:#FFFFFF;}
	.st2{fill:#828282;}
	.st3{fill:#D45153;}
	.st4{fill:#DC800F;}
	.st5{fill:#F1D248;}
	.st6{fill:#319B7A;}
	.st7{fill:#43AAD6;}
	.st8{fill:#785CB3;}
	.st9{clip-path:url(#SVGID_4_);}
	.st10{clip-path:url(#SVGID_6_);}
	.st11{clip-path:url(#SVGID_8_);}
</style>
<g>
	<g>
		<g>
			<defs>
				<path id="SVGID_1_" d="M-1587,611.6l-53.8,75.7V750H-1790V250h149.1v272.5l41.3-122.5h159.6l-68.3,128.5L-1290,750h-160
					L-1587,611.6z"/>
			</defs>
			<clipPath id="SVGID_2_">
				<use xlink:href="#SVGID_1_"  style="overflow:visible;"/>
			</clipPath>
			<g class="st0">
			</g>
		</g>
	</g>
</g>
<rect x="-1440" y="250" class="st1" width="150" height="150"/>
<g>
	<path class="st2" d="M-567,611.6l-53.8,75.7V750H-770V250h149.1v272.5l41.3-122.5H-420l-68.3,128.5L-270,750h-160L-567,611.6z"/>
</g>
<rect x="-420" y="250" class="st1" width="150" height="150"/>
<g>
	<path d="M453,611.6l-53.8,75.7V750H250V250h149.1v272.5L440.4,400H600l-68.3,128.5L750,750H590L453,611.6z"/>
</g>
<rect x="600" y="250" class="st1" width="150" height="150"/>
<g>
	<path class="st3" d="M1473,611.6l-53.8,75.7V750H1270V250h149.1v272.5l41.3-122.5H1620l-68.3,128.5L1770,750h-160L1473,611.6z"/>
</g>
<rect x="1620" y="250" class="st1" width="150" height="150"/>
<g>
	<path class="st4" d="M2493,611.6l-53.8,75.7V750H2290V250h149.1v272.5l41.3-122.5H2640l-68.3,128.5L2790,750h-160L2493,611.6z"/>
</g>
<rect x="2640" y="250" class="st1" width="150" height="150"/>
<g>
	<path class="st5" d="M3513,611.6l-53.8,75.7V750H3310V250h149.1v272.5l41.3-122.5H3660l-68.3,128.5L3810,750h-160L3513,611.6z"/>
</g>
<rect x="3660" y="250" class="st1" width="150" height="150"/>
<g>
	<path class="st6" d="M4533,611.6l-53.8,75.7V750H4330V250h149.1v272.5l41.3-122.5H4680l-68.3,128.5L4830,750h-160L4533,611.6z"/>
</g>
<rect x="4680" y="250" class="st1" width="150" height="150"/>
<g>
	<path class="st7" d="M5553,611.6l-53.8,75.7V750H5350V250h149.1v272.5l41.3-122.5H5700l-68.3,128.5L5850,750h-160L5553,611.6z"/>
</g>
<rect x="5700" y="250" class="st1" width="150" height="150"/>
<g>
	<path class="st8" d="M6573,611.6l-53.8,75.7V750H6370V250h149.1v272.5l41.3-122.5H6720l-68.3,128.5L6870,750h-160L6573,611.6z"/>
</g>
<rect x="6720" y="250" class="st1" width="150" height="150"/>
<g>
	<g>
		<g>
			<defs>
				<path id="SVGID_3_" d="M-1587-533.4l-53.8,75.7v62.7H-1790v-500h149.1v272.5l41.3-122.5h159.6l-68.3,128.5l218.3,221.5h-160
					L-1587-533.4z"/>
			</defs>
			<clipPath id="SVGID_4_">
				<use xlink:href="#SVGID_3_"  style="overflow:visible;"/>
			</clipPath>
			<g class="st9">
			</g>
		</g>
	</g>
</g>
<rect x="-1440" y="-895.1" width="150" height="150"/>
<g>
	<path class="st2" d="M-567-533.4l-53.8,75.7v62.7H-770v-500h149.1v272.5l41.3-122.5H-420l-68.3,128.5L-270-395.1h-160L-567-533.4z"
		/>
</g>
<rect x="-420" y="-895.1" width="150" height="150"/>
<g>
	<path class="st1" d="M453-533.4l-53.8,75.7v62.7H250v-500h149.1v272.5l41.3-122.5H600l-68.3,128.5L750-395.1H590L453-533.4z"/>
</g>
<rect x="600" y="-895.1" width="150" height="150"/>
<g>
	<path class="st3" d="M1473-533.4l-53.8,75.7v62.7H1270v-500h149.1v272.5l41.3-122.5H1620l-68.3,128.5L1770-395.1h-160L1473-533.4z"
		/>
</g>
<rect x="1620" y="-895.1" width="150" height="150"/>
<g>
	<path class="st4" d="M2493-533.4l-53.8,75.7v62.7H2290v-500h149.1v272.5l41.3-122.5H2640l-68.3,128.5L2790-395.1h-160L2493-533.4z"
		/>
</g>
<rect x="2640" y="-895.1" width="150" height="150"/>
<g>
	<path class="st5" d="M3513-533.4l-53.8,75.7v62.7H3310v-500h149.1v272.5l41.3-122.5H3660l-68.3,128.5L3810-395.1h-160L3513-533.4z"
		/>
</g>
<rect x="3660" y="-895.1" width="150" height="150"/>
<g>
	<path class="st6" d="M4533-533.4l-53.8,75.7v62.7H4330v-500h149.1v272.5l41.3-122.5H4680l-68.3,128.5L4830-395.1h-160L4533-533.4z"
		/>
</g>
<rect x="4680" y="-895.1" width="150" height="150"/>
<g>
	<path class="st7" d="M5553-533.4l-53.8,75.7v62.7H5350v-500h149.1v272.5l41.3-122.5H5700l-68.3,128.5L5850-395.1h-160L5553-533.4z"
		/>
</g>
<rect x="5700" y="-895.1" width="150" height="150"/>
<g>
	<path class="st8" d="M6573-533.4l-53.8,75.7v62.7H6370v-500h149.1v272.5l41.3-122.5H6720l-68.3,128.5L6870-395.1h-160L6573-533.4z"
		/>
</g>
<rect x="6720" y="-895.1" width="150" height="150"/>
<g>
	<path d="M-1587-2813.2l-53.8,75.7v62.7H-1790v-500h149.1v272.5l41.3-122.5h159.6l-68.3,128.5l218.3,221.5h-160L-1587-2813.2z"/>
</g>
<g>
	<g>
		<defs>
			<rect id="SVGID_5_" x="-1440" y="-3174.8" width="150" height="150"/>
		</defs>
		<clipPath id="SVGID_6_">
			<use xlink:href="#SVGID_5_"  style="overflow:visible;"/>
		</clipPath>
		<g class="st10">
		</g>
	</g>
</g>
<g>
	<path d="M-567-2813.2l-53.8,75.7v62.7H-770v-500h149.1v272.5l41.3-122.5H-420l-68.3,128.5l218.3,221.5h-160L-567-2813.2z"/>
</g>
<rect x="-420" y="-3174.8" class="st2" width="150" height="150"/>
<g>
	<path d="M453-2813.2l-53.8,75.7v62.7H250v-500h149.1v272.5l41.3-122.5H600l-68.3,128.5L750-2674.8H590L453-2813.2z"/>
</g>
<rect x="600" y="-3174.8" class="st1" width="150" height="150"/>
<g>
	<path d="M1473-2813.2l-53.8,75.7v62.7H1270v-500h149.1v272.5l41.3-122.5H1620l-68.3,128.5l218.3,221.5h-160L1473-2813.2z"/>
</g>
<rect x="1620" y="-3174.8" class="st3" width="150" height="150"/>
<g>
	<path d="M2493-2813.2l-53.8,75.7v62.7H2290v-500h149.1v272.5l41.3-122.5H2640l-68.3,128.5l218.3,221.5h-160L2493-2813.2z"/>
</g>
<rect x="2640" y="-3174.8" class="st4" width="150" height="150"/>
<g>
	<path d="M3513-2813.2l-53.8,75.7v62.7H3310v-500h149.1v272.5l41.3-122.5H3660l-68.3,128.5l218.3,221.5h-160L3513-2813.2z"/>
</g>
<rect x="3660" y="-3174.8" class="st5" width="150" height="150"/>
<g>
	<path d="M4533-2813.2l-53.8,75.7v62.7H4330v-500h149.1v272.5l41.3-122.5H4680l-68.3,128.5l218.3,221.5h-160L4533-2813.2z"/>
</g>
<rect x="4680" y="-3174.8" class="st6" width="150" height="150"/>
<g>
	<path d="M5553-2813.2l-53.8,75.7v62.7H5350v-500h149.1v272.5l41.3-122.5H5700l-68.3,128.5l218.3,221.5h-160L5553-2813.2z"/>
</g>
<rect x="5700" y="-3174.8" class="st7" width="150" height="150"/>
<g>
	<path d="M6573-2813.2l-53.8,75.7v62.7H6370v-500h149.1v272.5l41.3-122.5H6720l-68.3,128.5l218.3,221.5h-160L6573-2813.2z"/>
</g>
<rect x="6720" y="-3174.8" class="st8" width="150" height="150"/>
<g>
	<path class="st1" d="M-1587-1678.5l-53.8,75.7v62.7H-1790v-500h149.1v272.5l41.3-122.5h159.6l-68.3,128.5l218.3,221.5h-160
		L-1587-1678.5z"/>
</g>
<g>
	<g>
		<defs>
			<rect id="SVGID_7_" x="-1440" y="-2040.1" width="150" height="150"/>
		</defs>
		<clipPath id="SVGID_8_">
			<use xlink:href="#SVGID_7_"  style="overflow:visible;"/>
		</clipPath>
		<g class="st11">
		</g>
	</g>
</g>
<g>
	<path class="st1" d="M-567-1678.5l-53.8,75.7v62.7H-770v-500h149.1v272.5l41.3-122.5H-420l-68.3,128.5l218.3,221.5h-160
		L-567-1678.5z"/>
</g>
<rect x="-420" y="-2040.1" class="st2" width="150" height="150"/>
<g>
	<path class="st1" d="M453-1678.5l-53.8,75.7v62.7H250v-500h149.1v272.5l41.3-122.5H600l-68.3,128.5L750-1540.1H590L453-1678.5z"/>
</g>
<rect x="600" y="-2040.1" width="150" height="150"/>
<g>
	<path class="st1" d="M1473-1678.5l-53.8,75.7v62.7H1270v-500h149.1v272.5l41.3-122.5H1620l-68.3,128.5l218.3,221.5h-160
		L1473-1678.5z"/>
</g>
<rect x="1620" y="-2040.1" class="st3" width="150" height="150"/>
<g>
	<path class="st1" d="M2493-1678.5l-53.8,75.7v62.7H2290v-500h149.1v272.5l41.3-122.5H2640l-68.3,128.5l218.3,221.5h-160
		L2493-1678.5z"/>
</g>
<rect x="2640" y="-2040.1" class="st4" width="150" height="150"/>
<g>
	<path class="st1" d="M3513-1678.5l-53.8,75.7v62.7H3310v-500h149.1v272.5l41.3-122.5H3660l-68.3,128.5l218.3,221.5h-160
		L3513-1678.5z"/>
</g>
<rect x="3660" y="-2040.1" class="st5" width="150" height="150"/>
<g>
	<path class="st1" d="M4533-1678.5l-53.8,75.7v62.7H4330v-500h149.1v272.5l41.3-122.5H4680l-68.3,128.5l218.3,221.5h-160
		L4533-1678.5z"/>
</g>
<rect x="4680" y="-2040.1" class="st6" width="150" height="150"/>
<g>
	<path class="st1" d="M5553-1678.5l-53.8,75.7v62.7H5350v-500h149.1v272.5l41.3-122.5H5700l-68.3,128.5l218.3,221.5h-160
		L5553-1678.5z"/>
</g>
<rect x="5700" y="-2040.1" class="st7" width="150" height="150"/>
<g>
	<path class="st1" d="M6573-1678.5l-53.8,75.7v62.7H6370v-500h149.1v272.5l41.3-122.5H6720l-68.3,128.5l218.3,221.5h-160
		L6573-1678.5z"/>
</g>
<rect x="6720" y="-2040.1" class="st8" width="150" height="150"/>
</svg>
